<svg xmlns="http://www.w3.org/2000/svg" width="700" height="480" viewBox="0 0 70 48"><rect width="70" height="48" fill="#ffffff"/><defs><pattern id="h" width="1" height="1" patternUnits="userSpaceOnUse" patternTransform="rotate(45)"><line x1="0" y1="0" x2="0" y2="1" stroke="#6b7c8c" stroke-width="0.12"/></pattern></defs><polygon points="22.5,24 22.5,16 22.534,15.741 22.634,15.5 22.793,15.293 23.0,15.134 23.241,15.034 23.5,15 40,15 40,15.6 45,15.6 45,15 46.5,15 46.759,15.034 47.0,15.134 47.207,15.293 47.366,15.5 47.466,15.741 47.5,16 47.5,24 36.6,24 36.6,17 31.9,17 31.9,24" fill="url(#h)" stroke="#1b2a3a" stroke-width="0.3" stroke-linejoin="miter"/><line x1="35" y1="26" x2="35" y2="13" stroke="#6b7c8c" stroke-width="0.18" stroke-dasharray="3 0.8 0.6 0.8"/><line x1="51" y1="24" x2="51" y2="15" stroke="#3d6f99" stroke-width="0.18"/><line x1="49.8" y1="24" x2="52.2" y2="24" stroke="#3d6f99" stroke-width="0.18"/><line x1="49.8" y1="15" x2="52.2" y2="15" stroke="#3d6f99" stroke-width="0.18"/><text x="50.2" y="19.5" font-family="Consolas, 'IBM Plex Mono', monospace" font-size="2.6" fill="#3d6f99" text-anchor="middle" transform="rotate(-90 50.2 19.5)">9</text><line x1="19" y1="24" x2="19" y2="17" stroke="#3d6f99" stroke-width="0.18"/><line x1="17.8" y1="24" x2="20.2" y2="24" stroke="#3d6f99" stroke-width="0.18"/><line x1="17.8" y1="17" x2="20.2" y2="17" stroke="#3d6f99" stroke-width="0.18"/><text x="18.2" y="20.5" font-family="Consolas, 'IBM Plex Mono', monospace" font-size="2.6" fill="#3d6f99" text-anchor="middle" transform="rotate(-90 18.2 20.5)">7</text><line x1="31.9" y1="13" x2="36.6" y2="13" stroke="#3d6f99" stroke-width="0.18"/><line x1="31.9" y1="14.2" x2="31.9" y2="11.8" stroke="#3d6f99" stroke-width="0.18"/><line x1="36.6" y1="14.2" x2="36.6" y2="11.8" stroke="#3d6f99" stroke-width="0.18"/><text x="34.25" y="12.2" font-family="Consolas, 'IBM Plex Mono', monospace" font-size="2.6" fill="#3d6f99" text-anchor="middle">4,7</text><text x="35" y="9" font-family="Consolas, 'IBM Plex Mono', monospace" font-size="2" fill="#3d6f99" text-anchor="middle">alésage en D Ø 6,2 sur 7 · repère creux 0,6</text><line x1="33.5" y1="24" x2="36.5" y2="24" stroke="#d0312d" stroke-width="0.25"/><line x1="35" y1="25.5" x2="35" y2="22.5" stroke="#d0312d" stroke-width="0.25"/><circle cx="35" cy="24" r="0.75" fill="none" stroke="#d0312d" stroke-width="0.2"/><text x="37" y="27.2" font-family="Consolas, 'IBM Plex Mono', monospace" font-size="2.6" fill="#d0312d" text-anchor="start">0,0</text><line x1="25" y1="33" x2="45" y2="33" stroke="#d0312d" stroke-width="0.3"/><line x1="22.5" y1="33" x2="27.5" y2="33" stroke="#d0312d" stroke-width="0.25"/><line x1="25" y1="35.5" x2="25" y2="30.5" stroke="#d0312d" stroke-width="0.25"/><circle cx="25" cy="33" r="1.25" fill="none" stroke="#d0312d" stroke-width="0.2"/><line x1="42.5" y1="33" x2="47.5" y2="33" stroke="#d0312d" stroke-width="0.25"/><line x1="45" y1="35.5" x2="45" y2="30.5" stroke="#d0312d" stroke-width="0.25"/><circle cx="45" cy="33" r="1.25" fill="none" stroke="#d0312d" stroke-width="0.2"/><text x="35.0" y="31.4" font-family="Consolas, 'IBM Plex Mono', monospace" font-size="2.4" fill="#d0312d" text-anchor="middle">ÉTALON 20 mm</text><text x="4" y="40.4" font-family="Consolas, 'IBM Plex Mono', monospace" font-size="3" fill="#1b2a3a">BOUTON · COUPE · plan XZ</text><text x="4" y="44.0" font-family="Consolas, 'IBM Plex Mono', monospace" font-size="2.4" fill="#3d6f99">dessous à z = 0 · jeu 0,2 · 10 px = 1 mm</text></svg>