<svg xmlns="http://www.w3.org/2000/svg" width="1600" height="800" viewBox="0 0 160 80"><rect width="160" height="80" fill="#ffffff"/><defs><pattern id="h" width="1.2" height="1.2" patternUnits="userSpaceOnUse" patternTransform="rotate(45)"><line x1="0" y1="0" x2="0" y2="1.2" stroke="#6b7c8c" stroke-width="0.15"/></pattern></defs><polygon points="18,50 18,24 35.3,24 35.3,26.5 20.5,26.5 20.5,50" fill="url(#h)" stroke="#1b2a3a" stroke-width="0.35" stroke-linejoin="miter"/><polygon points="132.15,24 143,24 143,50 140.5,50 140.5,26.5 132.15,26.5" fill="url(#h)" stroke="#1b2a3a" stroke-width="0.35" stroke-linejoin="miter"/><polygon points="42.7,26.5 42.7,24 62,24 62,26.5" fill="url(#h)" stroke="#1b2a3a" stroke-width="0.35" stroke-linejoin="miter"/><polygon points="75,26.5 75,24 81.05,24 81.05,26.5" fill="url(#h)" stroke="#1b2a3a" stroke-width="0.35" stroke-linejoin="miter"/><polygon points="94.05,26.5 94.05,24 100.1,24 100.1,26.5" fill="url(#h)" stroke="#1b2a3a" stroke-width="0.35" stroke-linejoin="miter"/><polygon points="113.1,26.5 113.1,24 119.15,24 119.15,26.5" fill="url(#h)" stroke="#1b2a3a" stroke-width="0.35" stroke-linejoin="miter"/><rect x="76.025" y="26.5" width="3.6" height="8.5" rx="0" fill="none" stroke="#6b7c8c" stroke-width="0.2" stroke-dasharray="1 0.6"/><rect x="114.525" y="26.5" width="3.6" height="8.5" rx="0" fill="none" stroke="#6b7c8c" stroke-width="0.2" stroke-dasharray="1 0.6"/><rect x="26.95" y="26.5" width="3.6" height="11.5" rx="0" fill="none" stroke="#6b7c8c" stroke-width="0.2" stroke-dasharray="1 0.6"/><rect x="47.45" y="26.5" width="3.6" height="11.5" rx="0" fill="none" stroke="#6b7c8c" stroke-width="0.2" stroke-dasharray="1 0.6"/><rect x="58.825" y="35.0" width="76.5" height="1.6" rx="0" fill="none" stroke="#6b7c8c" stroke-width="0.2"/><polygon points="61.5,35 75.5,35 73.55,23.5 63.45,23.5" fill="none" stroke="#6b7c8c" stroke-width="0.2" stroke-linejoin="miter"/><rect x="65.25" y="19.5" width="6.5" height="4" rx="0" fill="none" stroke="#6b7c8c" stroke-width="0.2"/><rect x="59.5" y="16.5" width="18" height="3" rx="0" fill="none" stroke="#6b7c8c" stroke-width="0.2" stroke-dasharray="1 0.6"/><polygon points="80.55,35 94.55,35 92.6,23.5 82.5,23.5" fill="none" stroke="#6b7c8c" stroke-width="0.2" stroke-linejoin="miter"/><rect x="84.3" y="19.5" width="6.5" height="4" rx="0" fill="none" stroke="#6b7c8c" stroke-width="0.2"/><rect x="78.55" y="16.5" width="18" height="3" rx="0" fill="none" stroke="#6b7c8c" stroke-width="0.2" stroke-dasharray="1 0.6"/><polygon points="99.6,35 113.6,35 111.65,23.5 101.55,23.5" fill="none" stroke="#6b7c8c" stroke-width="0.2" stroke-linejoin="miter"/><rect x="103.35" y="19.5" width="6.5" height="4" rx="0" fill="none" stroke="#6b7c8c" stroke-width="0.2"/><rect x="97.6" y="16.5" width="18" height="3" rx="0" fill="none" stroke="#6b7c8c" stroke-width="0.2" stroke-dasharray="1 0.6"/><polygon points="118.65,35 132.65,35 130.7,23.5 120.6,23.5" fill="none" stroke="#6b7c8c" stroke-width="0.2" stroke-linejoin="miter"/><rect x="122.4" y="19.5" width="6.5" height="4" rx="0" fill="none" stroke="#6b7c8c" stroke-width="0.2"/><rect x="116.65" y="16.5" width="18" height="3" rx="0" fill="none" stroke="#6b7c8c" stroke-width="0.2" stroke-dasharray="1 0.6"/><rect x="26.25" y="38.0" width="25.5" height="1.6" rx="0" fill="none" stroke="#6b7c8c" stroke-width="0.2"/><rect x="33" y="31" width="12" height="7" rx="0" fill="none" stroke="#6b7c8c" stroke-width="0.2"/><rect x="35.5" y="24" width="7" height="7" rx="0" fill="none" stroke="#6b7c8c" stroke-width="0.2"/><rect x="36" y="16" width="6" height="8" rx="0" fill="none" stroke="#6b7c8c" stroke-width="0.2"/><rect x="26.5" y="14" width="25" height="9" rx="0" fill="none" stroke="#6b7c8c" stroke-width="0.2" stroke-dasharray="1 0.6"/><line x1="39" y1="42" x2="39" y2="12" stroke="#6b7c8c" stroke-width="0.18" stroke-dasharray="3 0.8 0.6 0.8"/><line x1="151" y1="50" x2="151" y2="24" stroke="#3d6f99" stroke-width="0.18"/><line x1="149.8" y1="50" x2="152.2" y2="50" stroke="#3d6f99" stroke-width="0.18"/><line x1="149.8" y1="24" x2="152.2" y2="24" stroke="#3d6f99" stroke-width="0.18"/><text x="150.2" y="37.0" font-family="Consolas, 'IBM Plex Mono', monospace" font-size="2.6" fill="#3d6f99" text-anchor="middle" transform="rotate(-90 150.2 37.0)">26</text><line x1="10" y1="26.5" x2="10" y2="24" stroke="#3d6f99" stroke-width="0.18"/><line x1="8.8" y1="26.5" x2="11.2" y2="26.5" stroke="#3d6f99" stroke-width="0.18"/><line x1="8.8" y1="24" x2="11.2" y2="24" stroke="#3d6f99" stroke-width="0.18"/><text x="9.2" y="25.25" font-family="Consolas, 'IBM Plex Mono', monospace" font-size="2.6" fill="#3d6f99" text-anchor="middle" transform="rotate(-90 9.2 25.25)">2,5</text><line x1="23.4" y1="38" x2="23.4" y2="24" stroke="#3d6f99" stroke-width="0.18"/><line x1="22.2" y1="38" x2="24.6" y2="38" stroke="#3d6f99" stroke-width="0.18"/><line x1="22.2" y1="24" x2="24.6" y2="24" stroke="#3d6f99" stroke-width="0.18"/><text x="22.6" y="31.0" font-family="Consolas, 'IBM Plex Mono', monospace" font-size="2.6" fill="#3d6f99" text-anchor="middle" transform="rotate(-90 22.6 31.0)">14</text><line x1="55.2" y1="35" x2="55.2" y2="24" stroke="#3d6f99" stroke-width="0.18"/><line x1="54.0" y1="35" x2="56.4" y2="35" stroke="#3d6f99" stroke-width="0.18"/><line x1="54.0" y1="24" x2="56.4" y2="24" stroke="#3d6f99" stroke-width="0.18"/><text x="54.4" y="29.5" font-family="Consolas, 'IBM Plex Mono', monospace" font-size="2.6" fill="#3d6f99" text-anchor="middle" transform="rotate(-90 54.4 29.5)">11</text><line x1="158" y1="24" x2="158" y2="16.5" stroke="#3d6f99" stroke-width="0.18"/><line x1="156.8" y1="24" x2="159.2" y2="24" stroke="#3d6f99" stroke-width="0.18"/><line x1="156.8" y1="16.5" x2="159.2" y2="16.5" stroke="#3d6f99" stroke-width="0.18"/><text x="157.2" y="20.25" font-family="Consolas, 'IBM Plex Mono', monospace" font-size="2.6" fill="#3d6f99" text-anchor="middle" transform="rotate(-90 157.2 20.25)">7,5</text><text x="80.5" y="13" font-family="Consolas, 'IBM Plex Mono', monospace" font-size="2.2" fill="#6b7c8c" text-anchor="middle">pièce hachurée · composants en gris · capuchons et bouton en tirets</text><line x1="14" y1="50" x2="22" y2="50" stroke="#d0312d" stroke-width="0.25"/><line x1="18" y1="54" x2="18" y2="46" stroke="#d0312d" stroke-width="0.25"/><circle cx="18" cy="50" r="2.0" fill="none" stroke="#d0312d" stroke-width="0.2"/><text x="1" y="57" font-family="Consolas, 'IBM Plex Mono', monospace" font-size="2.6" fill="#d0312d" text-anchor="start">ORIGINE 0,0 (dos)</text><line x1="18" y1="60" x2="118" y2="60" stroke="#d0312d" stroke-width="0.3"/><line x1="15.5" y1="60" x2="20.5" y2="60" stroke="#d0312d" stroke-width="0.25"/><line x1="18" y1="62.5" x2="18" y2="57.5" stroke="#d0312d" stroke-width="0.25"/><circle cx="18" cy="60" r="1.25" fill="none" stroke="#d0312d" stroke-width="0.2"/><line x1="115.5" y1="60" x2="120.5" y2="60" stroke="#d0312d" stroke-width="0.25"/><line x1="118" y1="62.5" x2="118" y2="57.5" stroke="#d0312d" stroke-width="0.25"/><circle cx="118" cy="60" r="1.25" fill="none" stroke="#d0312d" stroke-width="0.2"/><text x="68.0" y="58.4" font-family="Consolas, 'IBM Plex Mono', monospace" font-size="2.4" fill="#d0312d" text-anchor="middle">ÉTALON 100 mm : cliquer le centre des deux croix</text><text x="4" y="72.4" font-family="Consolas, 'IBM Plex Mono', monospace" font-size="3" fill="#1b2a3a">COIN-MODULE · COUPE A-A · plan XZ (y = 21), vue de face</text><text x="4" y="76.0" font-family="Consolas, 'IBM Plex Mono', monospace" font-size="2.4" fill="#3d6f99">z vers le haut, dos à z = 0, façade à z = 26 · 10 px = 1 mm</text></svg>